<mxfile host="Electron" agent="Mozilla/5.0 (Macintosh; Intel Mac OS X 10_15_7) AppleWebKit/537.36 (KHTML, like Gecko) draw.io/26.0.4 Chrome/128.0.6613.186 Electron/32.2.5 Safari/537.36" version="26.0.4">
  <diagram name="Страница — 1" id="GXoQ9Fckhz2TElahb0p1">
    <mxGraphModel dx="2074" dy="1267" grid="1" gridSize="10" guides="1" tooltips="1" connect="1" arrows="1" fold="1" page="1" pageScale="1" pageWidth="827" pageHeight="1169" math="0" shadow="0">
      <root>
        <mxCell id="0" />
        <mxCell id="1" parent="0" />
        <mxCell id="X3cA3z2wW9elmPkxXUIT-1" value="Сотрудник ресепшена" style="html=1;overflow=block;blockSpacing=1;whiteSpace=wrap;fontSize=11.7;spacingLeft=8.4;spacingRight=8.4;spacingTop=2.4;spacing=0;strokeWidth=NaN;lucidId=asoTfqQSeU_S;" vertex="1" parent="1">
          <mxGeometry x="284.3" y="574" width="135" height="105" as="geometry" />
        </mxCell>
        <mxCell id="X3cA3z2wW9elmPkxXUIT-2" value="&lt;div style=&quot;display: flex; justify-content: center; text-align: center; align-items: baseline; font-size: 0; line-height: 1.25;margin-left: 8.4px;margin-right: 8.4px;margin-top: 2.4px;margin-top: -2px;&quot;&gt;&lt;span&gt;&lt;span style=&quot;font-size:11.7px;color:#333333;&quot;&gt;1.0&lt;/span&gt;&lt;/span&gt;&lt;/div&gt;" style="shape=swimlane;html=1;rounded=1;arcSize=10;collapsible=0;fontStyle=0;startSize=36;whiteSpace=wrap;overflow=block;blockSpacing=1;fontSize=13;spacing=0;strokeColor=#333333;strokeOpacity=100;fillOpacity=100;fillColor=#ffffff;strokeWidth=0.8;swimlaneFillColor=#ffffff;" vertex="1" parent="1">
          <mxGeometry x="530" y="567" width="150" height="120" as="geometry" />
        </mxCell>
        <mxCell id="X3cA3z2wW9elmPkxXUIT-3" value="&lt;div style=&quot;display: flex; justify-content: center; text-align: center; align-items: baseline; font-size: 0; line-height: 1.25;margin-left: 8.4px;margin-right: 8.4px;margin-top: 2.4px;margin-top: -2px;&quot;&gt;&lt;span&gt;&lt;span style=&quot;font-size:11.7px;&quot;&gt;Запись пациента на приём&lt;/span&gt;&lt;/span&gt;&lt;/div&gt;" style="rounded=1;arcSize=10;strokeColor=none;fillColor=none;whiteSpace=wrap;overflow=block;blockSpacing=1;html=1;fontSize=13;spacing=0;strokeOpacity=100;fillOpacity=100;strokeWidth=0.8;" vertex="1" parent="X3cA3z2wW9elmPkxXUIT-2">
          <mxGeometry y="36" width="150" height="84" as="geometry" />
        </mxCell>
        <mxCell id="X3cA3z2wW9elmPkxXUIT-4" value="" style="html=1;jettySize=18;whiteSpace=wrap;overflow=block;blockSpacing=1;fontSize=13;strokeColor=#333333;strokeOpacity=100;strokeWidth=0.8;rounded=1;arcSize=0;edgeStyle=orthogonalEdgeStyle;startArrow=none;endArrow=block;endFill=1;exitX=1.003;exitY=0.5;exitPerimeter=0;entryX=-0.002;entryY=0.5;entryPerimeter=0;lucidId=zsoT-ikYFgSu;" edge="1" parent="1" source="X3cA3z2wW9elmPkxXUIT-1" target="X3cA3z2wW9elmPkxXUIT-2">
          <mxGeometry width="100" height="100" relative="1" as="geometry">
            <Array as="points" />
          </mxGeometry>
        </mxCell>
        <mxCell id="X3cA3z2wW9elmPkxXUIT-5" value="Данные пациента" style="text;html=1;resizable=0;labelBackgroundColor=default;align=center;verticalAlign=middle;fontSize=11.7;" vertex="1" parent="X3cA3z2wW9elmPkxXUIT-4">
          <mxGeometry relative="1" as="geometry" />
        </mxCell>
        <mxCell id="X3cA3z2wW9elmPkxXUIT-6" value="Excel-файл" style="html=1;overflow=block;blockSpacing=1;shape=partialRectangle;right=0;whiteSpace=wrap;fontSize=11.7;spacingLeft=8.4;spacingRight=8.4;spacingTop=2.4;spacing=0;strokeWidth=NaN;" vertex="1" parent="1">
          <mxGeometry x="803" y="604.5" width="135" height="45" as="geometry" />
        </mxCell>
        <mxCell id="X3cA3z2wW9elmPkxXUIT-7" value="" style="part=1;whiteSpace=wrap;fontSize=13;spacingLeft=8.4;spacingRight=8.4;spacingTop=2.4;spacing=0;strokeWidth=NaN;" vertex="1" parent="X3cA3z2wW9elmPkxXUIT-6">
          <mxGeometry width="27" height="45" as="geometry" />
        </mxCell>
        <mxCell id="X3cA3z2wW9elmPkxXUIT-8" value="Врач" style="html=1;overflow=block;blockSpacing=1;whiteSpace=wrap;fontSize=11.7;spacingLeft=8.4;spacingRight=8.4;spacingTop=2.4;spacing=0;strokeWidth=NaN;lucidId=cwoTSQqR09gp;" vertex="1" parent="1">
          <mxGeometry x="540" y="760" width="135" height="105" as="geometry" />
        </mxCell>
        <mxCell id="X3cA3z2wW9elmPkxXUIT-9" value="" style="html=1;jettySize=18;whiteSpace=wrap;fontSize=13;strokeColor=#333333;strokeOpacity=100;strokeWidth=0.8;rounded=1;arcSize=0;edgeStyle=orthogonalEdgeStyle;startArrow=none;endArrow=block;endFill=1;exitX=1.003;exitY=0.5;exitPerimeter=0;entryX=-0.003;entryY=0.5;entryPerimeter=0;lucidId=4woT-tOS3eKC;" edge="1" parent="1" source="X3cA3z2wW9elmPkxXUIT-2" target="X3cA3z2wW9elmPkxXUIT-6">
          <mxGeometry width="100" height="100" relative="1" as="geometry">
            <Array as="points" />
          </mxGeometry>
        </mxCell>
        <mxCell id="X3cA3z2wW9elmPkxXUIT-10" value="Данные пациента" style="text;html=1;resizable=0;labelBackgroundColor=default;align=center;verticalAlign=middle;fontSize=11.7;" vertex="1" parent="X3cA3z2wW9elmPkxXUIT-9">
          <mxGeometry relative="1" as="geometry" />
        </mxCell>
        <mxCell id="X3cA3z2wW9elmPkxXUIT-11" value="&lt;div style=&quot;display: flex; justify-content: center; text-align: center; align-items: baseline; font-size: 0; line-height: 1.25;margin-left: 8.4px;margin-right: 8.4px;margin-top: 2.4px;margin-top: -2px;&quot;&gt;&lt;span&gt;&lt;span style=&quot;font-size:11.7px;color:#333333;&quot;&gt;1.0&lt;/span&gt;&lt;/span&gt;&lt;/div&gt;" style="shape=swimlane;html=1;rounded=1;arcSize=10;collapsible=0;fontStyle=0;startSize=36;whiteSpace=wrap;overflow=block;blockSpacing=1;fontSize=13;spacing=0;strokeColor=#333333;strokeOpacity=100;fillOpacity=100;fillColor=#ffffff;strokeWidth=0.8;swimlaneFillColor=#ffffff;" vertex="1" parent="1">
          <mxGeometry x="797" y="740" width="150" height="120" as="geometry" />
        </mxCell>
        <mxCell id="X3cA3z2wW9elmPkxXUIT-12" value="&lt;div style=&quot;display: flex; justify-content: undefined; text-align: undefined; align-items: baseline; font-size: 0; line-height: 1.25;margin-left: 8.4px;margin-right: 8.4px;margin-top: 2.4px;margin-top: -2px;&quot;&gt;&lt;span&gt;&lt;span style=&quot;font-size:11.7px;&quot;&gt;Просмотр и редактирование своего журнала&lt;/span&gt;&lt;/span&gt;&lt;/div&gt;" style="rounded=1;arcSize=10;strokeColor=none;fillColor=none;whiteSpace=wrap;overflow=block;blockSpacing=1;html=1;fontSize=13;spacing=0;strokeOpacity=100;fillOpacity=100;strokeWidth=0.8;" vertex="1" parent="X3cA3z2wW9elmPkxXUIT-11">
          <mxGeometry y="36" width="150" height="84" as="geometry" />
        </mxCell>
        <mxCell id="X3cA3z2wW9elmPkxXUIT-13" value="" style="html=1;jettySize=18;whiteSpace=wrap;fontSize=13;strokeColor=#333333;strokeOpacity=100;strokeWidth=0.8;rounded=1;arcSize=0;edgeStyle=orthogonalEdgeStyle;startArrow=none;endArrow=block;endFill=1;exitX=0.5;exitY=1;entryX=0.5;entryY=0;lucidId=7yoTCOuvgxQe;exitDx=0;exitDy=0;entryDx=0;entryDy=0;" edge="1" parent="1" source="X3cA3z2wW9elmPkxXUIT-6" target="X3cA3z2wW9elmPkxXUIT-11">
          <mxGeometry width="100" height="100" relative="1" as="geometry" />
        </mxCell>
        <mxCell id="X3cA3z2wW9elmPkxXUIT-14" value="Данные о записи" style="text;html=1;resizable=0;labelBackgroundColor=default;align=center;verticalAlign=middle;fontSize=11.7;" vertex="1" parent="X3cA3z2wW9elmPkxXUIT-13">
          <mxGeometry relative="1" as="geometry" />
        </mxCell>
        <mxCell id="X3cA3z2wW9elmPkxXUIT-15" value="" style="html=1;jettySize=18;whiteSpace=wrap;fontSize=13;strokeColor=#333333;strokeOpacity=100;strokeWidth=0.8;rounded=1;arcSize=0;edgeStyle=orthogonalEdgeStyle;startArrow=none;endArrow=block;endFill=1;exitX=0;exitY=0.333;exitPerimeter=0;lucidId=BAoTHyUbQ1t.;exitDx=0;exitDy=0;entryX=0.97;entryY=0.438;entryDx=0;entryDy=0;entryPerimeter=0;" edge="1" parent="1" source="X3cA3z2wW9elmPkxXUIT-12" target="X3cA3z2wW9elmPkxXUIT-8">
          <mxGeometry width="100" height="100" relative="1" as="geometry">
            <Array as="points" />
            <mxPoint x="700" y="804" as="targetPoint" />
          </mxGeometry>
        </mxCell>
        <mxCell id="X3cA3z2wW9elmPkxXUIT-16" value="Данные о записи" style="text;html=1;resizable=0;labelBackgroundColor=default;align=center;verticalAlign=middle;fontSize=11.7;" vertex="1" parent="X3cA3z2wW9elmPkxXUIT-15">
          <mxGeometry relative="1" as="geometry">
            <mxPoint x="5" as="offset" />
          </mxGeometry>
        </mxCell>
        <mxCell id="X3cA3z2wW9elmPkxXUIT-17" value="&lt;div style=&quot;display: flex; justify-content: flex-start; text-align: left; align-items: baseline; font-size: 0; line-height: 1.25;margin-left: 8.4px;margin-right: 8.4px;margin-top: 2.4px;margin-top: -2px;&quot;&gt;&lt;span&gt;&lt;span style=&quot;font-size:20px;font-weight: bold;&quot;&gt;&lt;span style=&quot;font-size:20px;font-weight: bold;&quot;&gt;З&lt;/span&gt;&lt;span style=&quot;font-size:20px;color:#000000;font-weight: bold;&quot;&gt;апис&lt;/span&gt;&lt;span style=&quot;font-size:20px;font-weight: bold;&quot;&gt;ь&lt;/span&gt;&lt;span style=&quot;font-size:20px;color:#000000;font-weight: bold;&quot;&gt; пациента на приём&lt;/span&gt;&lt;/span&gt;&lt;/span&gt;&lt;/div&gt;" style="html=1;overflow=block;blockSpacing=1;whiteSpace=wrap;fontSize=13;spacing=3.8;strokeColor=none;fillOpacity=0;fillColor=#ffffff;strokeWidth=0;lucidId=ZAoT.BgwwvGa;" vertex="1" parent="1">
          <mxGeometry x="75" y="495" width="434" height="23" as="geometry" />
        </mxCell>
        <mxCell id="X3cA3z2wW9elmPkxXUIT-18" value="Обработка платежей" style="html=1;overflow=block;blockSpacing=1;whiteSpace=wrap;fontSize=20;fontStyle=1;align=left;spacing=3.8;strokeColor=none;fillOpacity=0;fillColor=#ffffff;strokeWidth=0;lucidId=2BoTO88nVu5f;" vertex="1" parent="1">
          <mxGeometry x="75" y="900" width="270" height="56" as="geometry" />
        </mxCell>
        <mxCell id="X3cA3z2wW9elmPkxXUIT-19" value="Кассир" style="html=1;overflow=block;blockSpacing=1;whiteSpace=wrap;fontSize=11.7;spacingLeft=8.4;spacingRight=8.4;spacingTop=2.4;spacing=0;strokeWidth=NaN;lucidId=wCoT28a2KHFY;" vertex="1" parent="1">
          <mxGeometry x="289.6" y="992" width="135" height="105" as="geometry" />
        </mxCell>
        <mxCell id="X3cA3z2wW9elmPkxXUIT-20" value="" style="html=1;jettySize=18;whiteSpace=wrap;fontSize=13;strokeColor=#333333;strokeOpacity=100;strokeWidth=0.8;rounded=1;arcSize=0;edgeStyle=orthogonalEdgeStyle;startArrow=none;endArrow=block;endFill=1;exitX=1.003;exitY=0.5;exitPerimeter=0;entryX=-0.003;entryY=0.5;entryPerimeter=0;lucidId=wCoTl3jKB1mL;" edge="1" parent="1" source="X3cA3z2wW9elmPkxXUIT-19" target="X3cA3z2wW9elmPkxXUIT-30">
          <mxGeometry width="100" height="100" relative="1" as="geometry">
            <Array as="points" />
          </mxGeometry>
        </mxCell>
        <mxCell id="X3cA3z2wW9elmPkxXUIT-21" value="Данные о платеже " style="text;html=1;resizable=0;labelBackgroundColor=default;align=center;verticalAlign=middle;fontSize=11.7;" vertex="1" parent="X3cA3z2wW9elmPkxXUIT-20">
          <mxGeometry relative="1" as="geometry" />
        </mxCell>
        <mxCell id="X3cA3z2wW9elmPkxXUIT-22" value="Пациент" style="html=1;overflow=block;blockSpacing=1;whiteSpace=wrap;fontSize=11.7;spacingLeft=8.4;spacingRight=8.4;spacingTop=2.4;spacing=0;strokeWidth=NaN;lucidId=8DoTiCFhCw0j;" vertex="1" parent="1">
          <mxGeometry x="15" y="574" width="135" height="105" as="geometry" />
        </mxCell>
        <mxCell id="X3cA3z2wW9elmPkxXUIT-23" value="" style="html=1;jettySize=18;whiteSpace=wrap;fontSize=13;strokeColor=#333333;strokeOpacity=100;strokeWidth=0.8;rounded=1;arcSize=0;edgeStyle=orthogonalEdgeStyle;startArrow=none;endArrow=block;endFill=1;exitX=1;exitY=0.5;entryX=-0.003;entryY=0.5;entryPerimeter=0;lucidId=BEoTgIVFSw8q;exitDx=0;exitDy=0;" edge="1" parent="1" source="X3cA3z2wW9elmPkxXUIT-22" target="X3cA3z2wW9elmPkxXUIT-1">
          <mxGeometry width="100" height="100" relative="1" as="geometry">
            <Array as="points" />
            <mxPoint x="194.70499999999976" y="626.5" as="sourcePoint" />
          </mxGeometry>
        </mxCell>
        <mxCell id="X3cA3z2wW9elmPkxXUIT-24" value="Данные пациента" style="text;html=1;resizable=0;labelBackgroundColor=default;align=center;verticalAlign=middle;fontSize=11.7;" vertex="1" parent="X3cA3z2wW9elmPkxXUIT-23">
          <mxGeometry x="-0.5042016806722708" relative="1" as="geometry">
            <mxPoint x="27" as="offset" />
          </mxGeometry>
        </mxCell>
        <mxCell id="X3cA3z2wW9elmPkxXUIT-25" value="Пациент" style="html=1;overflow=block;blockSpacing=1;whiteSpace=wrap;fontSize=11.7;spacingLeft=8.4;spacingRight=8.4;spacingTop=2.4;spacing=0;strokeWidth=NaN;lucidId=aFoTALbI3cfx;" vertex="1" parent="1">
          <mxGeometry x="15" y="989" width="135" height="105" as="geometry" />
        </mxCell>
        <mxCell id="X3cA3z2wW9elmPkxXUIT-26" value="" style="html=1;jettySize=18;whiteSpace=wrap;fontSize=13;strokeColor=#333333;strokeOpacity=100;strokeWidth=0.8;rounded=1;arcSize=0;edgeStyle=orthogonalEdgeStyle;startArrow=none;endArrow=block;endFill=1;exitX=1.003;exitY=0.5;exitPerimeter=0;entryX=-0.003;entryY=0.5;entryPerimeter=0;lucidId=FGoTL37WUmSH;" edge="1" parent="1" source="X3cA3z2wW9elmPkxXUIT-25" target="X3cA3z2wW9elmPkxXUIT-19">
          <mxGeometry width="100" height="100" relative="1" as="geometry">
            <Array as="points" />
          </mxGeometry>
        </mxCell>
        <mxCell id="X3cA3z2wW9elmPkxXUIT-27" value="Данные о платеже" style="text;html=1;resizable=0;labelBackgroundColor=default;align=center;verticalAlign=middle;fontSize=11.7;" vertex="1" parent="X3cA3z2wW9elmPkxXUIT-26">
          <mxGeometry x="-0.1008403361344572" relative="1" as="geometry" />
        </mxCell>
        <mxCell id="X3cA3z2wW9elmPkxXUIT-28" value="&lt;div style=&quot;display: flex; justify-content: center; text-align: center; align-items: baseline; font-size: 0; line-height: 1.25;margin-left: 8.4px;margin-right: 8.4px;margin-top: 2.4px;margin-top: -2px;&quot;&gt;&lt;span&gt;&lt;span style=&quot;font-size:11.7px;color:#333333;&quot;&gt;1.0&lt;/span&gt;&lt;/span&gt;&lt;/div&gt;" style="shape=swimlane;html=1;rounded=1;arcSize=10;collapsible=0;fontStyle=0;startSize=36;whiteSpace=wrap;overflow=block;blockSpacing=1;fontSize=13;spacing=0;strokeColor=#333333;strokeOpacity=100;fillOpacity=100;fillColor=#ffffff;strokeWidth=0.8;swimlaneFillColor=#ffffff;" vertex="1" parent="1">
          <mxGeometry x="797" y="984.5" width="150" height="120" as="geometry" />
        </mxCell>
        <mxCell id="X3cA3z2wW9elmPkxXUIT-29" value="&lt;div style=&quot;display: flex; justify-content: center; text-align: center; align-items: baseline; font-size: 0; line-height: 1.25;margin-left: 8.4px;margin-right: 8.4px;margin-top: 2.4px;margin-top: -2px;&quot;&gt;&lt;span&gt;&lt;span style=&quot;font-size:11.7px;&quot;&gt;Оплата приема&lt;/span&gt;&lt;/span&gt;&lt;/div&gt;" style="rounded=1;arcSize=10;strokeColor=none;fillColor=none;whiteSpace=wrap;overflow=block;blockSpacing=1;html=1;fontSize=13;spacing=0;strokeOpacity=100;fillOpacity=100;strokeWidth=0.8;" vertex="1" parent="X3cA3z2wW9elmPkxXUIT-28">
          <mxGeometry y="36" width="150" height="84" as="geometry" />
        </mxCell>
        <mxCell id="X3cA3z2wW9elmPkxXUIT-30" value="ККМ" style="html=1;overflow=block;blockSpacing=1;whiteSpace=wrap;fontSize=11.7;spacingLeft=8.4;spacingRight=8.4;spacingTop=2.4;spacing=0;strokeWidth=NaN;lucidId=LJoTk6E9zE_2;" vertex="1" parent="1">
          <mxGeometry x="538.59" y="991.5" width="135" height="105" as="geometry" />
        </mxCell>
        <mxCell id="X3cA3z2wW9elmPkxXUIT-31" value="" style="html=1;jettySize=18;whiteSpace=wrap;fontSize=13;strokeColor=#333333;strokeOpacity=100;strokeWidth=0.8;rounded=1;arcSize=0;edgeStyle=orthogonalEdgeStyle;startArrow=none;endArrow=block;endFill=1;exitX=1.003;exitY=0.5;exitPerimeter=0;entryX=-0.002;entryY=0.5;entryPerimeter=0;lucidId=cKoToVUnSZX.;" edge="1" parent="1" source="X3cA3z2wW9elmPkxXUIT-30" target="X3cA3z2wW9elmPkxXUIT-28">
          <mxGeometry width="100" height="100" relative="1" as="geometry">
            <Array as="points" />
          </mxGeometry>
        </mxCell>
        <mxCell id="X3cA3z2wW9elmPkxXUIT-32" value="Данные о платеже " style="text;html=1;resizable=0;labelBackgroundColor=default;align=center;verticalAlign=middle;fontSize=11.7;" vertex="1" parent="X3cA3z2wW9elmPkxXUIT-31">
          <mxGeometry x="-0.10774410774410437" relative="1" as="geometry" />
        </mxCell>
        <mxCell id="X3cA3z2wW9elmPkxXUIT-33" value="1С Бухгалтерия" style="html=1;overflow=block;blockSpacing=1;shape=partialRectangle;right=0;whiteSpace=wrap;fontSize=11.7;spacingLeft=8.4;spacingRight=8.4;spacingTop=2.4;spacing=0;strokeWidth=NaN;" vertex="1" parent="1">
          <mxGeometry x="797" y="1210" width="135" height="45" as="geometry" />
        </mxCell>
        <mxCell id="X3cA3z2wW9elmPkxXUIT-34" value="" style="part=1;whiteSpace=wrap;fontSize=13;spacingLeft=8.4;spacingRight=8.4;spacingTop=2.4;spacing=0;strokeWidth=NaN;" vertex="1" parent="X3cA3z2wW9elmPkxXUIT-33">
          <mxGeometry width="27" height="45" as="geometry" />
        </mxCell>
        <mxCell id="X3cA3z2wW9elmPkxXUIT-35" value="" style="html=1;jettySize=18;whiteSpace=wrap;fontSize=13;strokeColor=#333333;strokeOpacity=100;strokeWidth=0.8;rounded=1;arcSize=0;edgeStyle=orthogonalEdgeStyle;startArrow=none;endArrow=block;endFill=1;exitX=0.5;exitY=1;entryX=0.57;entryY=-0.044;lucidId=dLoTiaKZ326x;entryDx=0;entryDy=0;exitDx=0;exitDy=0;entryPerimeter=0;" edge="1" parent="1" source="X3cA3z2wW9elmPkxXUIT-29" target="X3cA3z2wW9elmPkxXUIT-33">
          <mxGeometry width="100" height="100" relative="1" as="geometry">
            <Array as="points" />
          </mxGeometry>
        </mxCell>
        <mxCell id="X3cA3z2wW9elmPkxXUIT-36" value="Данные о платеже " style="text;html=1;resizable=0;labelBackgroundColor=default;align=center;verticalAlign=middle;fontSize=11.7;" vertex="1" parent="X3cA3z2wW9elmPkxXUIT-35">
          <mxGeometry relative="1" as="geometry" />
        </mxCell>
        <mxCell id="X3cA3z2wW9elmPkxXUIT-37" value="Бухгалтер" style="html=1;overflow=block;blockSpacing=1;whiteSpace=wrap;fontSize=11.7;spacingLeft=8.4;spacingRight=8.4;spacingTop=2.4;spacing=0;strokeWidth=NaN;lucidId=ALoT9C70cAqE;" vertex="1" parent="1">
          <mxGeometry x="537.5" y="1180" width="135" height="105" as="geometry" />
        </mxCell>
        <mxCell id="X3cA3z2wW9elmPkxXUIT-38" value="" style="html=1;jettySize=18;whiteSpace=wrap;fontSize=13;strokeColor=#333333;strokeOpacity=100;strokeWidth=0.8;rounded=1;arcSize=0;edgeStyle=orthogonalEdgeStyle;startArrow=none;endArrow=block;endFill=1;exitX=0;exitY=0.5;entryX=1;entryY=0.5;lucidId=XLoTTwu.7qfm;exitDx=0;exitDy=0;entryDx=0;entryDy=0;" edge="1" parent="1" source="X3cA3z2wW9elmPkxXUIT-34" target="X3cA3z2wW9elmPkxXUIT-37">
          <mxGeometry width="100" height="100" relative="1" as="geometry">
            <Array as="points" />
          </mxGeometry>
        </mxCell>
        <mxCell id="X3cA3z2wW9elmPkxXUIT-39" value="Данные о платеже " style="text;html=1;resizable=0;labelBackgroundColor=default;align=center;verticalAlign=middle;fontSize=11.7;" vertex="1" parent="X3cA3z2wW9elmPkxXUIT-38">
          <mxGeometry x="0.16280076406468824" relative="1" as="geometry">
            <mxPoint x="15" as="offset" />
          </mxGeometry>
        </mxCell>
        <mxCell id="X3cA3z2wW9elmPkxXUIT-40" value="Сотрудник ресепшена" style="html=1;overflow=block;blockSpacing=1;whiteSpace=wrap;fontSize=11.7;spacingLeft=8.4;spacingRight=8.4;spacingTop=2.4;spacing=0;strokeWidth=NaN;lucidId=vOoTGyY8pK7F;" vertex="1" parent="1">
          <mxGeometry x="279" y="109" width="135" height="105" as="geometry" />
        </mxCell>
        <mxCell id="X3cA3z2wW9elmPkxXUIT-41" value="&lt;div style=&quot;display: flex; justify-content: center; text-align: center; align-items: baseline; font-size: 0; line-height: 1.25;margin-left: 8.4px;margin-right: 8.4px;margin-top: 2.4px;margin-top: -2px;&quot;&gt;&lt;span&gt;&lt;span style=&quot;font-size:11.7px;color:#333333;&quot;&gt;1.0&lt;/span&gt;&lt;/span&gt;&lt;/div&gt;" style="shape=swimlane;html=1;rounded=1;arcSize=10;collapsible=0;fontStyle=0;startSize=36;whiteSpace=wrap;overflow=block;blockSpacing=1;fontSize=13;spacing=0;strokeColor=#333333;strokeOpacity=100;fillOpacity=100;fillColor=#ffffff;strokeWidth=0.8;swimlaneFillColor=#ffffff;" vertex="1" parent="1">
          <mxGeometry x="530" y="101.5" width="150" height="120" as="geometry" />
        </mxCell>
        <mxCell id="X3cA3z2wW9elmPkxXUIT-42" value="&lt;div style=&quot;display: flex; justify-content: center; text-align: center; align-items: baseline; font-size: 0; line-height: 1.25;margin-left: 8.4px;margin-right: 8.4px;margin-top: 2.4px;margin-top: -2px;&quot;&gt;&lt;span&gt;&lt;span style=&quot;font-size:11.7px;&quot;&gt;Регистрация пациента&lt;/span&gt;&lt;/span&gt;&lt;/div&gt;" style="rounded=1;arcSize=10;strokeColor=none;fillColor=none;whiteSpace=wrap;overflow=block;blockSpacing=1;html=1;fontSize=13;spacing=0;strokeOpacity=100;fillOpacity=100;strokeWidth=0.8;" vertex="1" parent="X3cA3z2wW9elmPkxXUIT-41">
          <mxGeometry y="36" width="150" height="84" as="geometry" />
        </mxCell>
        <mxCell id="X3cA3z2wW9elmPkxXUIT-43" value="" style="html=1;jettySize=18;whiteSpace=wrap;fontSize=13;strokeColor=#333333;strokeOpacity=100;strokeWidth=0.8;rounded=1;arcSize=0;edgeStyle=orthogonalEdgeStyle;startArrow=none;endArrow=block;endFill=1;exitX=1.003;exitY=0.5;exitPerimeter=0;entryX=-0.002;entryY=0.5;entryPerimeter=0;lucidId=vOoT6ckDugsn;" edge="1" parent="1" source="X3cA3z2wW9elmPkxXUIT-40" target="X3cA3z2wW9elmPkxXUIT-41">
          <mxGeometry width="100" height="100" relative="1" as="geometry">
            <Array as="points" />
          </mxGeometry>
        </mxCell>
        <mxCell id="X3cA3z2wW9elmPkxXUIT-44" value="Данные пациента" style="text;html=1;resizable=0;labelBackgroundColor=default;align=center;verticalAlign=middle;fontSize=11.7;" vertex="1" parent="X3cA3z2wW9elmPkxXUIT-43">
          <mxGeometry relative="1" as="geometry">
            <mxPoint x="-2" as="offset" />
          </mxGeometry>
        </mxCell>
        <mxCell id="X3cA3z2wW9elmPkxXUIT-63" style="edgeStyle=orthogonalEdgeStyle;rounded=0;orthogonalLoop=1;jettySize=auto;html=1;exitX=0;exitY=0;exitDx=0;exitDy=0;" edge="1" parent="X3cA3z2wW9elmPkxXUIT-43" source="X3cA3z2wW9elmPkxXUIT-44" target="X3cA3z2wW9elmPkxXUIT-44">
          <mxGeometry relative="1" as="geometry" />
        </mxCell>
        <mxCell id="X3cA3z2wW9elmPkxXUIT-45" value="Excel-файл" style="html=1;overflow=block;blockSpacing=1;shape=partialRectangle;right=0;whiteSpace=wrap;fontSize=11.7;spacingLeft=8.4;spacingRight=8.4;spacingTop=2.4;spacing=0;strokeWidth=NaN;" vertex="1" parent="1">
          <mxGeometry x="803" y="139" width="135" height="45" as="geometry" />
        </mxCell>
        <mxCell id="X3cA3z2wW9elmPkxXUIT-46" value="" style="part=1;whiteSpace=wrap;fontSize=13;spacingLeft=8.4;spacingRight=8.4;spacingTop=2.4;spacing=0;strokeWidth=NaN;" vertex="1" parent="X3cA3z2wW9elmPkxXUIT-45">
          <mxGeometry width="27" height="45" as="geometry" />
        </mxCell>
        <mxCell id="X3cA3z2wW9elmPkxXUIT-47" value="" style="html=1;jettySize=18;whiteSpace=wrap;fontSize=13;strokeColor=#333333;strokeOpacity=100;strokeWidth=0.8;rounded=1;arcSize=0;edgeStyle=orthogonalEdgeStyle;startArrow=none;endArrow=block;endFill=1;exitX=1.003;exitY=0.5;exitPerimeter=0;entryX=-0.003;entryY=0.5;entryPerimeter=0;lucidId=vOoTJVZmTnbS;" edge="1" parent="1" source="X3cA3z2wW9elmPkxXUIT-41" target="X3cA3z2wW9elmPkxXUIT-45">
          <mxGeometry width="100" height="100" relative="1" as="geometry">
            <Array as="points" />
          </mxGeometry>
        </mxCell>
        <mxCell id="X3cA3z2wW9elmPkxXUIT-48" value="Данные пациента" style="text;html=1;resizable=0;labelBackgroundColor=default;align=center;verticalAlign=middle;fontSize=11.7;" vertex="1" parent="X3cA3z2wW9elmPkxXUIT-47">
          <mxGeometry relative="1" as="geometry" />
        </mxCell>
        <mxCell id="X3cA3z2wW9elmPkxXUIT-49" value="Регистрация пациента" style="html=1;overflow=block;blockSpacing=1;whiteSpace=wrap;fontSize=20;fontStyle=1;align=left;spacingLeft=8.4;spacingRight=8.4;spacingTop=2.4;spacing=3.8;strokeColor=none;fillOpacity=0;fillColor=#ffffff;strokeWidth=0;lucidId=vOoTfs8ygpJv;" vertex="1" parent="1">
          <mxGeometry x="75" y="30" width="434" height="23" as="geometry" />
        </mxCell>
        <mxCell id="X3cA3z2wW9elmPkxXUIT-50" value="Пациент" style="html=1;overflow=block;blockSpacing=1;whiteSpace=wrap;fontSize=11.7;spacingLeft=8.4;spacingRight=8.4;spacingTop=2.4;spacing=0;strokeWidth=NaN;lucidId=vOoTF~BYmk~s;" vertex="1" parent="1">
          <mxGeometry x="15" y="109" width="135" height="105" as="geometry" />
        </mxCell>
        <mxCell id="X3cA3z2wW9elmPkxXUIT-51" value="" style="html=1;jettySize=18;whiteSpace=wrap;fontSize=13;strokeColor=#333333;strokeOpacity=100;strokeWidth=0.8;rounded=1;arcSize=0;edgeStyle=orthogonalEdgeStyle;startArrow=none;endArrow=block;endFill=1;exitX=1.003;exitY=0.5;exitPerimeter=0;entryX=-0.003;entryY=0.5;entryPerimeter=0;lucidId=vOoTFrKQhkiP;" edge="1" parent="1" source="X3cA3z2wW9elmPkxXUIT-50" target="X3cA3z2wW9elmPkxXUIT-40">
          <mxGeometry width="100" height="100" relative="1" as="geometry">
            <Array as="points" />
          </mxGeometry>
        </mxCell>
        <mxCell id="X3cA3z2wW9elmPkxXUIT-52" value="Данные пациента" style="text;html=1;resizable=0;labelBackgroundColor=default;align=center;verticalAlign=middle;fontSize=11.7;" vertex="1" parent="X3cA3z2wW9elmPkxXUIT-51">
          <mxGeometry x="-0.5042016806722708" relative="1" as="geometry">
            <mxPoint x="30" as="offset" />
          </mxGeometry>
        </mxCell>
        <mxCell id="X3cA3z2wW9elmPkxXUIT-53" value="Сотрудник ресепшена" style="html=1;overflow=block;blockSpacing=1;whiteSpace=wrap;fontSize=11.7;spacingLeft=8.4;spacingRight=8.4;spacingTop=2.4;spacing=0;strokeWidth=NaN;lucidId=SPoTydR5CLGP;" vertex="1" parent="1">
          <mxGeometry x="15" y="349" width="135" height="105" as="geometry" />
        </mxCell>
        <mxCell id="X3cA3z2wW9elmPkxXUIT-54" value="&lt;div style=&quot;display: flex; justify-content: center; text-align: center; align-items: baseline; font-size: 0; line-height: 1.25;margin-left: 8.4px;margin-right: 8.4px;margin-top: 2.4px;margin-top: -2px;&quot;&gt;&lt;span&gt;&lt;span style=&quot;font-size:11.7px;color:#333333;&quot;&gt;1.0&lt;/span&gt;&lt;/span&gt;&lt;/div&gt;" style="shape=swimlane;html=1;rounded=1;arcSize=10;collapsible=0;fontStyle=0;startSize=36;whiteSpace=wrap;overflow=block;blockSpacing=1;fontSize=13;spacing=0;strokeColor=#333333;strokeOpacity=100;fillOpacity=100;fillColor=#ffffff;strokeWidth=0.8;swimlaneFillColor=#ffffff;" vertex="1" parent="1">
          <mxGeometry x="270" y="341.5" width="150" height="120" as="geometry" />
        </mxCell>
        <mxCell id="X3cA3z2wW9elmPkxXUIT-55" value="&lt;div style=&quot;display: flex; justify-content: center; text-align: center; align-items: baseline; font-size: 0; line-height: 1.25;margin-left: 8.4px;margin-right: 8.4px;margin-top: 2.4px;margin-top: -2px;&quot;&gt;&lt;span&gt;&lt;span style=&quot;font-size:11.7px;&quot;&gt;Регистрация данных пациента&lt;/span&gt;&lt;/span&gt;&lt;/div&gt;" style="rounded=1;arcSize=10;strokeColor=none;fillColor=none;whiteSpace=wrap;overflow=block;blockSpacing=1;html=1;fontSize=13;spacing=0;strokeOpacity=100;fillOpacity=100;strokeWidth=0.8;" vertex="1" parent="X3cA3z2wW9elmPkxXUIT-54">
          <mxGeometry y="36" width="150" height="84" as="geometry" />
        </mxCell>
        <mxCell id="X3cA3z2wW9elmPkxXUIT-56" value="" style="html=1;jettySize=18;whiteSpace=wrap;fontSize=13;strokeColor=#333333;strokeOpacity=100;strokeWidth=0.8;rounded=1;arcSize=0;edgeStyle=orthogonalEdgeStyle;startArrow=none;endArrow=block;endFill=1;exitX=1.003;exitY=0.5;exitPerimeter=0;entryX=-0.002;entryY=0.5;entryPerimeter=0;lucidId=SPoTKjeBf1St;" edge="1" parent="1" source="X3cA3z2wW9elmPkxXUIT-53" target="X3cA3z2wW9elmPkxXUIT-54">
          <mxGeometry width="100" height="100" relative="1" as="geometry">
            <Array as="points" />
          </mxGeometry>
        </mxCell>
        <mxCell id="X3cA3z2wW9elmPkxXUIT-57" value="Данные пациента" style="text;html=1;resizable=0;labelBackgroundColor=default;align=center;verticalAlign=middle;fontSize=11.7;" vertex="1" parent="X3cA3z2wW9elmPkxXUIT-56">
          <mxGeometry relative="1" as="geometry" />
        </mxCell>
        <mxCell id="X3cA3z2wW9elmPkxXUIT-58" value="Excel-файл" style="html=1;overflow=block;blockSpacing=1;shape=partialRectangle;right=0;whiteSpace=wrap;fontSize=11.7;spacingLeft=8.4;spacingRight=8.4;spacingTop=2.4;spacing=0;strokeWidth=NaN;" vertex="1" parent="1">
          <mxGeometry x="550" y="379" width="135" height="45" as="geometry" />
        </mxCell>
        <mxCell id="X3cA3z2wW9elmPkxXUIT-59" value="" style="part=1;whiteSpace=wrap;fontSize=13;spacingLeft=8.4;spacingRight=8.4;spacingTop=2.4;spacing=0;strokeWidth=NaN;" vertex="1" parent="X3cA3z2wW9elmPkxXUIT-58">
          <mxGeometry width="27" height="45" as="geometry" />
        </mxCell>
        <mxCell id="X3cA3z2wW9elmPkxXUIT-60" value="" style="html=1;jettySize=18;whiteSpace=wrap;fontSize=13;strokeColor=#333333;strokeOpacity=100;strokeWidth=0.8;rounded=1;arcSize=0;edgeStyle=orthogonalEdgeStyle;startArrow=none;endArrow=block;endFill=1;exitX=1.003;exitY=0.5;exitPerimeter=0;entryX=-0.003;entryY=0.5;entryPerimeter=0;lucidId=SPoT1gKL2taZ;" edge="1" parent="1" source="X3cA3z2wW9elmPkxXUIT-54" target="X3cA3z2wW9elmPkxXUIT-58">
          <mxGeometry width="100" height="100" relative="1" as="geometry">
            <Array as="points" />
          </mxGeometry>
        </mxCell>
        <mxCell id="X3cA3z2wW9elmPkxXUIT-61" value="Данные пациента" style="text;html=1;resizable=0;labelBackgroundColor=default;align=center;verticalAlign=middle;fontSize=11.7;" vertex="1" parent="X3cA3z2wW9elmPkxXUIT-60">
          <mxGeometry relative="1" as="geometry" />
        </mxCell>
        <mxCell id="X3cA3z2wW9elmPkxXUIT-62" value="Регистрация данных пациента" style="html=1;overflow=block;blockSpacing=1;whiteSpace=wrap;fontSize=20;fontStyle=1;align=left;spacingLeft=8.4;spacingRight=8.4;spacingTop=2.4;spacing=3.8;strokeColor=none;fillOpacity=0;fillColor=#ffffff;strokeWidth=0;lucidId=SPoTR-wVtZyn;" vertex="1" parent="1">
          <mxGeometry x="75" y="270" width="434" height="23" as="geometry" />
        </mxCell>
      </root>
    </mxGraphModel>
  </diagram>
</mxfile>
